<?xml version="1.0" encoding="iso-8859-1"?>
<!-- Generator: Adobe Illustrator 19.0.0, SVG Export Plug-In . SVG Version: 6.00 Build 0)  -->
<svg version="1.1" id="Capa_1" xmlns="http://www.w3.org/2000/svg" xmlns:xlink="http://www.w3.org/1999/xlink" x="0px" y="0px"
	 viewBox="0 0 469.333 469.333" style="enable-background:new 0 0 469.333 469.333;" xml:space="preserve">
<g>
	<g>
		<g>
			<path d="M234.667,117.333c0-5.896-4.771-10.667-10.667-10.667c-42.875,0-64.688-5.104-77.792-18.208
				C133.104,75.344,128,53.531,128,10.667C128,4.771,123.229,0,117.333,0c-5.896,0-10.667,4.771-10.667,10.667
				c0,42.865-5.104,64.677-18.208,77.792c-13.104,13.104-34.917,18.208-77.792,18.208C4.771,106.667,0,111.437,0,117.333
				C0,123.229,4.771,128,10.667,128c42.875,0,64.688,5.104,77.792,18.208c13.104,13.115,18.208,34.927,18.208,77.792
				c0,5.896,4.771,10.667,10.667,10.667c5.896,0,10.667-4.771,10.667-10.667c0-42.865,5.104-64.677,18.208-77.792
				C159.312,133.104,181.125,128,224,128C229.896,128,234.667,123.229,234.667,117.333z"/>
			<path d="M224,64c14.854,0,22.792,1.615,26.583,5.406C254.375,73.208,256,81.156,256,96c0,5.896,4.771,10.667,10.667,10.667
				s10.667-4.771,10.667-10.667c0-14.844,1.625-22.792,5.417-26.594C286.542,65.615,294.479,64,309.333,64
				C315.229,64,320,59.229,320,53.333c0-5.896-4.771-10.667-10.667-10.667c-14.854,0-22.792-1.615-26.583-5.406
				c-3.792-3.802-5.417-11.75-5.417-26.594C277.333,4.771,272.562,0,266.667,0S256,4.771,256,10.667
				c0,14.844-1.625,22.792-5.417,26.594c-3.792,3.792-11.729,5.406-26.583,5.406c-5.896,0-10.667,4.771-10.667,10.667
				C213.333,59.229,218.104,64,224,64z"/>
			<path d="M281.417,221.083l-68.125-68.135c-2.146-2.146-5.125-3.281-8.083-3.115c-23.667,1.208-37.208,4.74-43.896,11.448
				c-6.729,6.729-10.271,20.281-11.458,43.927c-0.167,3.01,0.979,5.948,3.104,8.083l68.125,68.125
				c2.083,2.083,4.813,3.125,7.542,3.125c2.729,0,5.458-1.042,7.542-3.125l45.25-45.25C285.583,232,285.583,225.25,281.417,221.083z
				"/>
			<path d="M456.833,396.5l-145.25-145.25c-4.167-4.167-10.917-4.167-15.083,0l-45.25,45.25c-4.167,4.167-4.167,10.917,0,15.083
				l145.25,145.25c8.063,8.063,18.771,12.5,30.167,12.5c23.521,0,42.667-19.135,42.667-42.667
				C469.333,415.271,464.896,404.563,456.833,396.5z"/>
		</g>
	</g>
</g>
<g>
</g>
<g>
</g>
<g>
</g>
<g>
</g>
<g>
</g>
<g>
</g>
<g>
</g>
<g>
</g>
<g>
</g>
<g>
</g>
<g>
</g>
<g>
</g>
<g>
</g>
<g>
</g>
<g>
</g>
</svg>
