<?xml version="1.0" encoding="iso-8859-1"?>
<!-- Generator: Adobe Illustrator 18.1.1, SVG Export Plug-In . SVG Version: 6.00 Build 0)  -->
<svg version="1.1" id="Capa_1" xmlns="http://www.w3.org/2000/svg" xmlns:xlink="http://www.w3.org/1999/xlink" x="0px" y="0px"
	 viewBox="0 0 174.239 174.239" style="enable-background:new 0 0 174.239 174.239;" xml:space="preserve">
<g>
	<path d="M157.562,100.71v68.103c0,2.987-2.44,5.426-5.426,5.426H5.426C2.439,174.239,0,171.8,0,168.813V22.104
		c0-2.987,2.439-5.426,5.426-5.426h68.103c2.389,0,4.48,1.593,5.127,3.784c0.199,0.498,0.299,1.046,0.299,1.643l-0.149,67.754
		c0,2.987,2.389,5.426,5.376,5.426h67.953c0.597,0,1.145,0.099,1.643,0.299C155.969,96.23,157.562,98.321,157.562,100.71z"/>
	<path d="M174.239,5.426V73.38c0,2.987-2.439,5.426-5.426,5.426H100.86c-2.987,0-5.426-2.439-5.426-5.426V5.426
		C95.433,2.439,97.873,0,100.86,0h67.953C171.8,0,174.239,2.439,174.239,5.426z"/>
</g>
<g>
</g>
<g>
</g>
<g>
</g>
<g>
</g>
<g>
</g>
<g>
</g>
<g>
</g>
<g>
</g>
<g>
</g>
<g>
</g>
<g>
</g>
<g>
</g>
<g>
</g>
<g>
</g>
<g>
</g>
</svg>
